<svg xmlns="http://www.w3.org/2000/svg" width="256" height="256" viewBox="0 0 100 100"><rect width="100" height="100" rx="20" fill="#303037"></rect><path d="M48.85 83.41L22.23 83.41L22.23 77.63L29.71 76.35L29.71 23.70L22.23 22.42L22.23 16.59L29.71 16.59L48.39 16.59Q57.25 16.59 63.84 20.81Q70.42 25.03 74.10 32.42Q77.77 39.81 77.77 49.31L77.77 49.31L77.77 50.73Q77.77 60.01 74.23 67.42Q70.70 74.83 64.21 79.12Q57.71 83.41 48.85 83.41L48.85 83.41ZM38.75 23.70L38.75 76.35L48.39 76.35Q54.73 76.35 59.27 72.88Q63.82 69.42 66.27 63.61Q68.73 57.80 68.73 50.73L68.73 50.73L68.73 49.22Q68.73 41.92 66.27 36.16Q63.82 30.40 59.27 27.05Q54.73 23.70 48.39 23.70L48.39 23.70L38.75 23.70Z" fill="#ffffff"></path></svg>